<svg xmlns="http://www.w3.org/2000/svg" version="1.1" xmlns:xlink="http://www.w3.org/1999/xlink" width="1000" height="1000"><metadata><rdf:RDF xmlns:rdf="http://www.w3.org/1999/02/22-rdf-syntax-ns#" xmlns:dc="http://purl.org/dc/elements/1.1/"><rdf:Description><dc:creator>RealFaviconGenerator</dc:creator><dc:source>https://realfavicongenerator.net</dc:source></rdf:Description></rdf:RDF></metadata><style>
    #light-icon {
      display: inline;
    }
    #dark-icon {
      display: none;
    }

    @media (prefers-color-scheme: dark) {
      #light-icon {
        display: none;
      }
      #dark-icon {
        display: inline;
      }
    }
  </style><g id="light-icon"><svg xmlns="http://www.w3.org/2000/svg" version="1.1" xmlns:xlink="http://www.w3.org/1999/xlink" width="1000" height="1000"><g><g transform="matrix(236.23907394283017,0,0,236.23907394283017,0,0)"><svg xmlns="http://www.w3.org/2000/svg" viewBox="0 0 4.233 4.233" width="4.233" height="4.233"><path fill="#30ba78" d="M3.426 2.37a.25.25 0 0 1-.313-.384c.096-.1.255-.1.352 0a.25.25 0 0 1-.04.384m.393-.544a.92.92 0 1 1-1.793.42.92.92 0 0 1 1.793-.42M-.661 5.403c.076.11.14.215.175.32.025.075.057.174.131.214l.012.005c.136.05.485.041.485.041h.642c.055.001.537 0 .525-.054-.058-.258-.356-.304-.583-.439-.21-.125-.408-.266-.498-.51-.047-.125-.02-.414.062-.52a.4.4 0 0 1 .239-.147c.103-.023.21-.004.314.007.128.013.254.036.38.052q.37.048.742.038a4.1 4.1 0 0 0 1.205-.208c.27-.091.537-.214.767-.385.26-.194.192-.176-.073-.149a6 6 0 0 1-.955.019c-.297-.017-.59-.052-.858-.19a2.1 2.1 0 0 1-.561-.388.115.115 0 0 1 .005-.148c.045-.046.139-.019.168.006a2.07 2.07 0 0 0 1.18.467c.245.013.482.017.727.006.122-.005.306-.004.429-.006.063 0 .235.018.267-.05a.13.13 0 0 0 .008-.063c-.035-.978-.108-2.08-1.13-2.547C2.38.424 1.235-.116.752-.34a.17.17 0 0 0-.243.156c0 .326.016.795.017 1.222C.295.803-.095.654-.392.518A9 9 0 0 0-1.432.12a11 11 0 0 0-2.195-.43 8.4 8.4 0 0 0-2.528.127c-1.366.283-2.708.94-3.728 1.9-.625.59-1.116 1.428-1.15 2.278-.047 1.204.29 1.85.91 2.516.989 1.062 3.116 1.21 3.977-.049.388-.566.472-1.335.19-1.961-.28-.626-.927-1.079-1.613-1.102-.532-.018-1.099.253-1.303.745-.155.376-.067.84.217 1.132.11.113.26.207.423.17a.24.24 0 0 0 .19-.191c.022-.144-.104-.238-.181-.348a.534.534 0 0 1 .063-.669c.148-.143.367-.185.573-.185.192 0 .387.035.553.132a.98.98 0 0 1 .44.651c.16.79-.483 1.433-1.355 1.483-.446.027-.9-.09-1.247-.37-.881-.71-1.097-2.158-.09-2.932.956-.734 2.163-.545 2.875-.163.57.305.994.804 1.316 1.356.16.278.298.568.426.863.123.283.238.569.483.777.163.137.364.132.577.132h1.216c.165 0 .125-.11.054-.183-.162-.165-.393-.202-.608-.26-.49-.136-.44-.785-.304-.785.438 0 .452.013.836.009.554-.008.721-.04 1.155.12.232.086.454.312.6.52" style="stroke-width:.264583"></path></svg></g></g></svg></g><g id="dark-icon"><svg xmlns="http://www.w3.org/2000/svg" version="1.1" xmlns:xlink="http://www.w3.org/1999/xlink" width="1000" height="1000"><g><g transform="matrix(62.5,0,0,62.5,0,0)"><svg xmlns="http://www.w3.org/2000/svg" xml:space="preserve" width="16" height="16" viewBox="0 0 4.233 4.233"><path fill="#fff" d="M3.383 2.221a.237.237 0 0 0-.341 0 .242.242 0 0 0 .303.373.243.243 0 0 0 .038-.373m-.316-.853a.926.926 0 1 0-.422 1.804.926.926 0 0 0 .422-1.804M-8.098 7.574c-.793 0-1.585-.321-2.066-.838-.593-.637-.951-1.277-.903-2.499.03-.77.457-1.615 1.143-2.26C-8.935 1.043-7.61.368-6.196.075a8.3 8.3 0 0 1 2.53-.128A11.2 11.2 0 0 1-1.469.38c.365.113.715.247 1.04.396l.144.065c.27.12.576.255.768.45l.074.076V1.26c0-.228-.005-.464-.01-.693C.545.371.541.185.541.032c0-.08.067-.13.13-.13q.027 0 .053.012l.638.298c.555.26 1.245.584 1.766.822.45.206.75.553.918 1.063.146.444.175.944.194 1.461.001.017.002.034-.003.043-.003.006-.02.028-.138.028l-.087-.002h-.007l-.105.001c-.11.001-.235.002-.327.005a6 6 0 0 1-.286.007q-.201 0-.44-.012a2.03 2.03 0 0 1-1.162-.46.2.2 0 0 0-.126-.041.14.14 0 0 0-.102.038.16.16 0 0 0-.005.209c.17.172.353.283.575.398.264.135.543.176.88.196q.191.01.376.01.302 0 .593-.03l.047-.004q.064-.007.107-.01-.038.031-.112.087c-.204.152-.46.28-.759.38a4.1 4.1 0 0 1-1.326.21 5 5 0 0 1-.77-.063q-.111-.017-.226-.03-.026-.002-.053-.006A2 2 0 0 0 .622 4.5a.457.457 0 0 0-.38.175c-.093.123-.118.432-.069.566.1.266.32.415.52.534.064.039.134.07.201.1.167.075.311.14.358.288a2.6 2.6 0 0 1-.453.028h-.73c-.194 0-.345-.014-.414-.039h-.002l-.004-.002c-.059-.032-.087-.118-.11-.188l-.002-.003a1.3 1.3 0 0 0-.181-.333c-.182-.26-.415-.461-.624-.538-.3-.111-.48-.132-.725-.132q-.103 0-.234.004l-.218.004-.16.001c-.107 0-.179-.002-.261-.004-.1-.002-.214-.005-.42-.005-.065 0-.114.07-.13.19-.03.22.06.582.426.683q.05.014.1.026c.178.046.362.093.491.225.043.043.055.08.05.093-.003.006-.022.018-.073.018h-1.266c-.213 0-.373-.009-.508-.123-.227-.192-.338-.45-.456-.721l-.019-.045a8 8 0 0 0-.431-.871c-.372-.64-.823-1.104-1.34-1.381a3.04 3.04 0 0 0-1.392-.344 2.5 2.5 0 0 0-1.546.512 1.73 1.73 0 0 0-.688 1.379 2.12 2.12 0 0 0 .777 1.637 1.85 1.85 0 0 0 1.285.382c.49-.029.92-.238 1.18-.576a1.18 1.18 0 0 0 .222-.967 1.03 1.03 0 0 0-.463-.684 1.13 1.13 0 0 0-.578-.138h-.004q-.396 0-.602.198a.58.58 0 0 0-.069.728q.032.044.066.084c.066.078.123.145.11.235-.012.075-.076.138-.16.156a.3.3 0 0 1-.063.008c-.133 0-.248-.09-.322-.167a1.04 1.04 0 0 1-.208-1.091c.207-.5.763-.724 1.221-.724h.048c.667.024 1.304.459 1.585 1.084.273.607.199 1.365-.188 1.93-.383.56-1.064.882-1.867.882M3.526 2.269a.672.672 0 1 1-1.344.001.672.672 0 0 1 1.344 0" style="fill:#30ba78"></path></svg></g></g></svg></g></svg>