<?xml version="1.0" encoding="UTF-8" standalone="no"?>
<svg
   viewBox="0 0 1073.12 404.40695"
   version="1.1"
   id="svg79"
   width="1073.12"
   height="404.40695"
   xmlns:xlink="http://www.w3.org/1999/xlink"
   xmlns="http://www.w3.org/2000/svg"
   xmlns:svg="http://www.w3.org/2000/svg">
  <defs
     id="defs58">
    <style
       id="style1">
      .cls-1 {
        fill: url(#radial-gradient-2);
      }

      .cls-1, .cls-2, .cls-3, .cls-4 {
        opacity: .3;
      }

      .cls-2 {
        fill: url(#radial-gradient-5);
      }

      .cls-3 {
        fill: url(#radial-gradient-6);
      }

      .cls-4 {
        fill: url(#radial-gradient-4);
      }

      .cls-5 {
        fill: url(#radial-gradient);
        opacity: .4;
      }

      .cls-5, .cls-6, .cls-7, .cls-8, .cls-9, .cls-10, .cls-11, .cls-12, .cls-13, .cls-14 {
        mix-blend-mode: multiply;
      }

      .cls-15 {
        fill: url(#radial-gradient-3);
      }

      .cls-16 {
        fill: url(#linear-gradient-6);
      }

      .cls-6 {
        fill: url(#linear-gradient-2);
      }

      .cls-7 {
        fill: url(#linear-gradient-3);
      }

      .cls-8 {
        fill: url(#linear-gradient-4);
      }

      .cls-9 {
        fill: url(#linear-gradient-9);
      }

      .cls-10 {
        fill: url(#linear-gradient-5);
      }

      .cls-11 {
        fill: url(#linear-gradient-7);
      }

      .cls-12 {
        fill: url(#linear-gradient-8);
      }

      .cls-17 {
        isolation: isolate;
      }

      .cls-13 {
        fill: url(#linear-gradient-10);
      }

      .cls-18 {
        fill: #34b677;
      }

      .cls-14 {
        fill: url(#linear-gradient);
      }
    </style>
    <radialGradient
       id="radial-gradient"
       cx="600"
       cy="749.63"
       fx="600"
       fy="749.63"
       r="630.34003"
       gradientTransform="matrix(1,0,0,0.03,-63.44,329.91695)"
       gradientUnits="userSpaceOnUse">
      <stop
         offset="0"
         stop-color="#025937"
         id="stop1" />
      <stop
         offset=".85"
         stop-color="#025937"
         stop-opacity="0"
         id="stop2" />
    </radialGradient>
    <linearGradient
       id="linear-gradient"
       x1="1347.04"
       y1="2808.2"
       x2="1424.83"
       y2="2927.02"
       gradientTransform="rotate(29.21,5872.1271,-293.12352)"
       gradientUnits="userSpaceOnUse">
      <stop
         offset="0"
         stop-color="#fff"
         stop-opacity="0"
         id="stop3" />
      <stop
         offset=".26"
         stop-color="#dee9e2"
         stop-opacity=".07"
         id="stop4" />
      <stop
         offset=".65"
         stop-color="#83ae92"
         stop-opacity=".27"
         id="stop5" />
      <stop
         offset="1"
         stop-color="#196835"
         stop-opacity=".5"
         id="stop6" />
    </linearGradient>
    <linearGradient
       id="linear-gradient-2"
       x1="1554.33"
       y1="2710.5801"
       x2="1626.63"
       y2="2701.4199"
       gradientTransform="rotate(29.21,5872.1271,-293.12352)"
       gradientUnits="userSpaceOnUse">
      <stop
         offset="0"
         stop-color="#fff"
         stop-opacity="0"
         id="stop7" />
      <stop
         offset=".05"
         stop-color="#f1f5f2"
         stop-opacity=".03"
         id="stop8" />
      <stop
         offset=".67"
         stop-color="#548f69"
         stop-opacity=".37"
         id="stop9" />
      <stop
         offset="1"
         stop-color="#196835"
         stop-opacity=".5"
         id="stop10" />
    </linearGradient>
    <linearGradient
       id="linear-gradient-3"
       x1="257.56"
       y1="-555.75"
       x2="257.56"
       y2="-365.45999"
       gradientTransform="rotate(-13.77,3284.4867,76.79571)"
       gradientUnits="userSpaceOnUse">
      <stop
         offset="0"
         stop-color="#fff"
         stop-opacity="0"
         id="stop11" />
      <stop
         offset=".45"
         stop-color="#fafcfb"
         stop-opacity=".02"
         id="stop12" />
      <stop
         offset=".61"
         stop-color="#ebf2ee"
         stop-opacity=".08"
         id="stop13" />
      <stop
         offset=".72"
         stop-color="#d1e1d7"
         stop-opacity=".2"
         id="stop14" />
      <stop
         offset=".81"
         stop-color="#acc8b6"
         stop-opacity=".36"
         id="stop15" />
      <stop
         offset=".89"
         stop-color="#7ba88b"
         stop-opacity=".57"
         id="stop16" />
      <stop
         offset=".96"
         stop-color="#408258"
         stop-opacity=".83"
         id="stop17" />
      <stop
         offset="1"
         stop-color="#196835"
         id="stop18" />
    </linearGradient>
    <linearGradient
       id="linear-gradient-4"
       x1="444.14001"
       y1="588.09003"
       x2="444.14001"
       y2="746.28998"
       gradientUnits="userSpaceOnUse">
      <stop
         offset="0"
         stop-color="#1b6936"
         stop-opacity="0"
         id="stop19" />
      <stop
         offset=".57"
         stop-color="#1a6835"
         stop-opacity=".02"
         id="stop20" />
      <stop
         offset=".77"
         stop-color="#1a6835"
         stop-opacity=".08"
         id="stop21" />
      <stop
         offset=".92"
         stop-color="#196835"
         stop-opacity=".2"
         id="stop22" />
      <stop
         offset="1"
         stop-color="#196835"
         stop-opacity=".3"
         id="stop23" />
    </linearGradient>
    <linearGradient
       id="linear-gradient-5"
       x1="842.34998"
       y1="441.25"
       x2="842.34998"
       y2="707.98999"
       gradientTransform="rotate(-4.42,-4336.3609,1206.2648)"
       gradientUnits="userSpaceOnUse">
      <stop
         offset="0"
         stop-color="#0d6b37"
         stop-opacity="0"
         id="stop24" />
      <stop
         offset=".51"
         stop-color="#0c6a36"
         stop-opacity=".02"
         id="stop25" />
      <stop
         offset=".7"
         stop-color="#0c6a36"
         stop-opacity=".08"
         id="stop26" />
      <stop
         offset=".83"
         stop-color="#0c6a36"
         stop-opacity=".19"
         id="stop27" />
      <stop
         offset=".93"
         stop-color="#0b6a36"
         stop-opacity=".35"
         id="stop28" />
      <stop
         offset="1"
         stop-color="#0b6a36"
         stop-opacity=".5"
         id="stop29" />
    </linearGradient>
    <radialGradient
       id="radial-gradient-2"
       cx="850.06"
       cy="536.25"
       fx="850.06"
       fy="536.25"
       r="100.11"
       gradientTransform="rotate(-4.42,853.86639,583.3812)"
       gradientUnits="userSpaceOnUse">
      <stop
         offset="0"
         stop-color="#a7d8bb"
         id="stop30" />
      <stop
         offset="1"
         stop-color="#fff"
         stop-opacity="0"
         id="stop31" />
    </radialGradient>
    <radialGradient
       id="radial-gradient-3"
       cx="879.98999"
       cy="575.09998"
       fx="879.98999"
       fy="539.14001"
       r="51.57"
       gradientTransform="rotate(-4.42,-4336.3609,1206.2648)"
       gradientUnits="userSpaceOnUse">
      <stop
         offset="0"
         stop-color="#fff"
         id="stop32" />
      <stop
         offset=".53"
         stop-color="#fdfdfd"
         id="stop33" />
      <stop
         offset=".73"
         stop-color="#f6f6f6"
         id="stop34" />
      <stop
         offset=".82"
         stop-color="#efefef"
         id="stop35" />
    </radialGradient>
    <linearGradient
       id="linear-gradient-6"
       x1="3930.3701"
       y1="-595.96997"
       x2="3930.3701"
       y2="-580.40997"
       gradientTransform="rotate(175.58,2353.5062,-281.351)"
       gradientUnits="userSpaceOnUse">
      <stop
         offset="0"
         stop-color="#fff"
         stop-opacity="0"
         id="stop36" />
      <stop
         offset=".07"
         stop-color="#fff"
         stop-opacity=".1"
         id="stop37" />
      <stop
         offset=".27"
         stop-color="#fff"
         stop-opacity=".37"
         id="stop38" />
      <stop
         offset=".46"
         stop-color="#fff"
         stop-opacity=".59"
         id="stop39" />
      <stop
         offset=".63"
         stop-color="#fff"
         stop-opacity=".77"
         id="stop40" />
      <stop
         offset=".78"
         stop-color="#fff"
         stop-opacity=".9"
         id="stop41" />
      <stop
         offset=".91"
         stop-color="#fff"
         stop-opacity=".97"
         id="stop42" />
      <stop
         offset="1"
         stop-color="#fff"
         id="stop43" />
    </linearGradient>
    <linearGradient
       id="linear-gradient-7"
       x1="852.15002"
       y1="593.07001"
       x2="903.08002"
       y2="681.29999"
       gradientTransform="rotate(-4.42,-4336.3609,1206.2648)"
       gradientUnits="userSpaceOnUse">
      <stop
         offset="0"
         stop-color="#fff"
         stop-opacity="0"
         id="stop44" />
      <stop
         offset="1"
         stop-color="#196835"
         stop-opacity=".5"
         id="stop45" />
    </linearGradient>
    <radialGradient
       id="radial-gradient-4"
       cx="872"
       cy="653.52002"
       fx="872"
       fy="653.52002"
       r="55.009998"
       xlink:href="#radial-gradient-2"
       gradientTransform="translate(-63.44,-398.14305)" />
    <linearGradient
       id="linear-gradient-8"
       x1="658.21417"
       x2="661.45001"
       y2="743.71997"
       xlink:href="#linear-gradient-4"
       y1="436.84183"
       gradientTransform="translate(-63.44,-398.14305)" />
    <radialGradient
       id="radial-gradient-5"
       cx="1404.83"
       cy="2758.47"
       fx="1404.83"
       fy="2758.47"
       r="182.32001"
       gradientTransform="rotate(29.21,5872.1271,-293.12352)"
       xlink:href="#radial-gradient-2" />
    <radialGradient
       id="radial-gradient-6"
       cx="257.95001"
       cy="-688.16998"
       fx="257.95001"
       fy="-688.16998"
       r="91.389999"
       gradientTransform="rotate(-13.77,3284.4867,76.79571)"
       xlink:href="#radial-gradient-2" />
    <linearGradient
       id="linear-gradient-9"
       x1="295.32001"
       y1="-604.69"
       x2="295.32001"
       y2="-544.77002"
       gradientTransform="rotate(-13.77,3284.4867,76.79571)"
       gradientUnits="userSpaceOnUse">
      <stop
         offset="0"
         stop-color="#fff"
         stop-opacity="0"
         id="stop46" />
      <stop
         offset=".21"
         stop-color="#f6f9f7"
         stop-opacity=".04"
         id="stop47" />
      <stop
         offset=".4"
         stop-color="#dde9e1"
         stop-opacity=".14"
         id="stop48" />
      <stop
         offset=".59"
         stop-color="#b4cdbd"
         stop-opacity=".33"
         id="stop49" />
      <stop
         offset=".77"
         stop-color="#79a789"
         stop-opacity=".58"
         id="stop50" />
      <stop
         offset=".95"
         stop-color="#2e7647"
         stop-opacity=".91"
         id="stop51" />
      <stop
         offset="1"
         stop-color="#196835"
         id="stop52" />
    </linearGradient>
    <linearGradient
       id="linear-gradient-10"
       x1="256.89999"
       y1="-701.75"
       x2="256.89999"
       y2="-586.69"
       gradientTransform="rotate(-13.77,3284.4867,76.79571)"
       gradientUnits="userSpaceOnUse">
      <stop
         offset="0"
         stop-color="#fff"
         stop-opacity="0"
         id="stop53" />
      <stop
         offset=".17"
         stop-color="#bdd4c5"
         stop-opacity=".28"
         id="stop54" />
      <stop
         offset=".4"
         stop-color="#76a586"
         stop-opacity=".6"
         id="stop55" />
      <stop
         offset=".62"
         stop-color="#428359"
         stop-opacity=".82"
         id="stop56" />
      <stop
         offset=".82"
         stop-color="#236e3e"
         stop-opacity=".95"
         id="stop57" />
      <stop
         offset="1"
         stop-color="#196835"
         id="stop58" />
    </linearGradient>
    <linearGradient
       xlink:href="#linear-gradient-4"
       id="linearGradient79"
       gradientUnits="userSpaceOnUse"
       x1="444.14001"
       y1="588.09003"
       x2="444.14001"
       y2="746.28998"
       gradientTransform="translate(-63.44,-398.14305)" />
    <radialGradient
       xlink:href="#radial-gradient-2"
       id="radialGradient79"
       gradientUnits="userSpaceOnUse"
       gradientTransform="rotate(-4.42,-4336.3609,1206.2648)"
       cx="850.06"
       cy="536.25"
       fx="850.06"
       fy="536.25"
       r="100.11" />
    <clipPath
       clipPathUnits="userSpaceOnUse"
       id="clipPath81">
      <path
         class="cls-15"
         d="m 864.94,159.37695 c 11.59,36.43 -19.18,72.36 -56.96,66.51 -19.23,-2.97 -35.38,-16.8 -41.28,-35.34 -11.56,-36.4 19.2,-72.32 56.96,-66.5 19.22,2.96 35.38,16.78 41.28,35.32"
         id="path82"
         style="fill:url(#radialGradient82)" />
    </clipPath>
    <radialGradient
       xlink:href="#radial-gradient-3"
       id="radialGradient82"
       gradientUnits="userSpaceOnUse"
       gradientTransform="rotate(-4.42,-4336.3609,1206.2648)"
       cx="879.98999"
       cy="575.09998"
       fx="879.98999"
       fy="539.14001"
       r="51.57" />
  </defs>
  <path
     class="cls-5"
     d="m 1073.12,351.48695 c 0,29.23 -398.46,52.92 -638.5,52.92 -240.04,0 -434.62,-23.69 -434.62,-52.92 0,-29.23 194.59,-52.92 434.62,-52.92 240.03,0 638.5,23.69 638.5,52.92 z"
     id="path58"
     style="isolation:isolate;fill:url(#radial-gradient)" />
  <path
     class="cls-18"
     d="m 454.41,316.53695 c -37.68,12.91 -77.26,20.5 -117.08,21.96 -67.82,2.43 -138.86,-13.06 -198.13,-46.65 -36.38,-20.61 -69.28,-54.51 -80.7,-94.31 -16.17,-56.32 -7.72,-90.77 13.85,-129.42 34.41,-61.61 133.2,-93.26 188.48,-43.75 24.88,22.29 37.75,57.63 31.71,90.49 -6.04,32.84 -31.36,61.7 -63.49,70.73 -24.94,6.99 -54.85,0.77 -70.19,-20.11 -11.7,-15.95 -12.89,-38.91 -2.88,-55.97 3.9,-6.66 9.88,-12.79 18.02,-12.96 4.79,-0.1 9.43,2.39 11.25,6.83 2.68,6.56 -2.19,12.43 -4.57,18.55 -4.3,11.05 0.5,24.87 10.74,30.85 8.64,5.05 19.48,4.52 29.19,2.11 9.05,-2.24 17.91,-6.12 24.6,-12.6 9.39,-9.15 13.79,-22.76 13.25,-35.88 -1.62,-39.2 -39.42,-62.1 -81.17,-54.4 -21.37,3.92 -41.45,14.7 -54.65,31.96 -33.43,43.7 -26.86,114.66 29.69,139.54 53.68,23.62 108.52,0.71 137.74,-25.56 11.44,-10.29 62.12,-55.7 108.38,-74.35 41.38,38.17 151.49,116.61 55.96,192.93 z"
     id="path59"
     style="isolation:isolate" />
  <path
     class="cls-18"
     d="m 721.21,141.34695 c -15.91,-11.25 -110.87,-29.08 -121.33,-30.97 -17.77,-3.19 -35.78,-5.14 -53.82,-6.04 -29.7,-1.43 -59.49,0.07 -89,3.68 -31.62,4.51 -114.8,22.33 -130.1,86.27 -12.72,49.04 31.12,94.13 59.4,117.29 5.76,3.61 9.48,6.19 14.82,10.43 66.88,26.67 137.91,17.49 150.56,14.15 6.47,-1.81 13.17,-3.72 20.28,-5.61 3.27,-0.91 6.24,-1.68 9.07,-2.34 0.13,-0.03 0.26,-0.07 0.39,-0.1 26.22,-6.48 43.53,-11.28 57.09,-16.48 16.19,-6.21 27.04,-12.97 41.3,-23.81 26.2,-19.92 67.16,-128.23 41.35,-146.49 z"
     id="path60"
     style="isolation:isolate" />
  <path
     class="cls-14"
     d="m 679.86,287.83695 c 9.26,-7.04 20.35,-25.13 29.7,-46.37 -56.23,-26.78 -284.61,-37.08 -284.61,-37.08 0,0 -307.28,67.67 -310.03,64.66 7.83,31.89 153.32,71.38 178.32,68.53 23.13,2.86 70.88,1.17 108.18,-3.81 10.83,0.48 27.11,-0.03 45.13,1.33 31.13,6.52 76.87,7.32 105.17,1.07 6.47,-1.81 13.17,-3.72 20.28,-5.61 3.27,-0.91 6.24,-1.68 9.07,-2.34 0.13,-0.03 0.26,-0.07 0.39,-0.1 26.22,-6.48 43.53,-11.28 57.09,-16.48 16.19,-6.21 27.04,-12.97 41.3,-23.81 z"
     id="path61"
     style="isolation:isolate;fill:url(#linear-gradient)" />
  <path
     class="cls-6"
     d="m 721.21,141.34695 c -4.88,-3.45 -17.23,-7.53 -32.28,-11.57 0,0.02 -4.85,49.2 -47.12,101.15 -12.67,15.57 -53.64,97.07 -37.68,90.74 7.84,-3.11 57.44,-12.8 78.2,-38.32 25.62,-31.5 26.86,-71.45 40.76,-79.56 7.84,-28.17 9.64,-54.28 -1.88,-62.44 z"
     id="path62"
     style="isolation:isolate;fill:url(#linear-gradient-2)" />
  <path
     class="cls-7"
     d="m 368.46,336.08695 -15.34,-26.63 c -173.06,34.29 -285.03,-95.38 -288.25,-94.9 14.78,32.38 43.26,59.7 74.33,77.29 59.28,33.59 130.32,49.08 198.14,46.65 10.4,-0.38 20.79,-1.2 31.13,-2.41 z"
     id="path63"
     style="isolation:isolate;fill:url(#linear-gradient-3)" />
  <path
     class="cls-18"
     d="m 422.08,326.53695 c -21.38,-5.88 -21.63,-31.78 -16.7,-37.11 h -0.05 c 0.28,-0.84 13.49,-17.58 17.71,-35.58 4.22,-18 -9.14,-65.81 -51.05,-63.84 -41.9,1.97 -79.99,25.36 -59.54,63.59 0.06,0.11 0.1,0.21 0.15,0.32 1.69,2.65 3.36,5.32 4.94,8.03 7.85,13.51 14.54,27.63 20.75,41.96 5.97,13.78 11.56,27.68 23.51,37.78 7.91,6.7 17.68,6.46 28.04,6.46 h 59.17 c 8.04,0 6.08,-5.36 2.61,-8.91 -7.84,-8.02 -19.11,-9.83 -29.55,-12.7 z"
     id="path64"
     style="isolation:isolate" />
  <path
     class="cls-8"
     d="m 422.08,326.53695 c -21.38,-5.88 -21.63,-31.78 -16.7,-37.11 h -0.05 c 0.28,-0.84 13.49,-17.58 17.71,-35.58 4.22,-18 -9.14,-65.81 -51.05,-63.84 -41.9,1.97 -79.99,25.36 -59.54,63.59 0.06,0.11 0.1,0.21 0.15,0.32 1.69,2.65 3.36,5.32 4.94,8.03 7.85,13.51 14.54,27.63 20.75,41.96 5.97,13.78 11.56,27.68 23.51,37.78 7.91,6.7 17.68,6.46 28.04,6.46 h 59.17 c 8.04,0 6.08,-5.36 2.61,-8.91 -7.84,-8.02 -19.11,-9.83 -29.55,-12.7 z"
     id="path65"
     style="isolation:isolate;fill:url(#linearGradient79)" />
  <path
     class="cls-18"
     d="m 550.99,292.06695 c 11.27,4.18 22.1,15.19 29.16,25.26 3.69,5.31 6.77,10.44 8.49,15.58 1.22,3.65 2.79,8.45 6.38,10.39 0.2,0.11 0.37,0.21 0.59,0.27 6.6,2.4 23.58,2 23.58,2 h 31.22 c 2.67,0.04 26.13,-0.03 25.54,-2.65 -2.83,-12.54 -17.33,-14.79 -28.38,-21.35 -10.18,-6.07 -19.83,-12.95 -24.21,-24.78 -0.83,-2.22 -1.17,-5.5 -1.09,-9.02 0,0 0,0 0,0 0,0 0,-0.03 0,-0.04 0.06,-2.47 0.32,-5.05 0.79,-7.47 0.74,-13.03 11.72,-58.92 -8.99,-79.63 -28.12,-28.12 -82.68,5.06 -91.68,33.75 -8.1,25.82 7.11,45.2 10.2,48.11 3.09,2.91 13.01,7.6 18.39,9.59 z"
     id="path73"
     style="isolation:isolate" />
  <path
     class="cls-12"
     d="m 550.99,292.06695 c 11.27,4.18 22.1,15.19 29.16,25.26 3.69,5.31 6.77,10.44 8.49,15.58 1.22,3.65 2.79,8.45 6.38,10.39 0.2,0.11 0.37,0.21 0.59,0.27 6.6,2.4 23.58,2 23.58,2 h 31.22 c 2.67,0.04 26.13,-0.03 25.54,-2.65 -2.83,-12.54 -17.33,-14.79 -28.38,-21.35 -10.18,-6.07 -19.83,-12.95 -24.21,-24.78 -0.83,-2.22 -1.17,-5.5 -1.09,-9.02 0,0 0,0 0,0 0,0 0,-0.03 0,-0.04 0.06,-2.47 0.32,-5.05 0.79,-7.47 0.74,-13.03 11.72,-58.92 -8.99,-79.63 -28.12,-28.12 -82.68,5.06 -91.68,33.75 -8.1,25.82 7.11,45.2 10.2,48.11 3.09,2.91 13.01,7.6 18.39,9.59 z"
     id="path74"
     style="isolation:isolate;fill:url(#linear-gradient-8)" />
  <path
     class="cls-2"
     d="m 708.56,180.72695 20.81,-14.02 c 0.23,-11.85 -2.12,-21.09 -8.16,-25.36 -15.91,-11.25 -110.87,-29.08 -121.33,-30.97 -17.77,-3.19 -35.78,-5.14 -53.82,-6.04 -29.7,-1.43 -59.49,0.07 -89,3.68 -8.46,1.21 -20.62,3.38 -34.18,7.12 -8.66,0.68 -33.73,12.3 -41.2,15.86 -7.47,3.56 -33.16,19.22 -45.56,29.26 -50.12,34.94 -52.27,54.29 -107.43,69.6 62.53,9.45 76.82,-65.88 199.37,-87.56 122.57,-21.69 280.5,38.43 280.5,38.43 z"
     id="path75"
     style="isolation:isolate;fill:url(#radial-gradient-5)" />
  <path
     class="cls-3"
     d="m 171.72,24.95695 c 77.11,-15.22 118.59,48.04 118.96,48.6 -4.98,-18.77 -15.35,-36.2 -29.85,-49.19 -55.28,-49.51 -154.08,-17.86 -188.48,43.75 -8.25,14.78 -14.56,28.95 -18.32,43.95 v 0 c 0,0 40.24,-71.83 117.7,-87.11 z"
     id="path76"
     style="isolation:isolate;fill:url(#radial-gradient-6)" />
  <path
     class="cls-9"
     d="m 149.87,143.34695 c 1.23,7.96 4.22,15.63 8.99,22.14 15.33,20.88 45.25,27.11 70.19,20.11 30.18,-8.48 54.34,-34.46 62.17,-64.8 -0.23,0.35 -30.02,44.79 -73.29,57.7 -42.91,12.8 -67.45,-33.99 -68.06,-35.15 z"
     id="path77"
     style="isolation:isolate;fill:url(#linear-gradient-9)" />
  <path
     class="cls-13"
     d="m 122.64,83.97695 c 13.2,-17.26 33.28,-28.05 54.65,-31.96 41.75,-7.7 79.55,15.2 81.17,54.4 0,0 -0.75,-95.67 -99.11,-65 -98.36,30.66 -52.78,131.08 -52.78,131.08 v -0.03 c -9.12,-29.21 -3.15,-63.35 16.07,-88.47 z"
     id="path78"
     style="isolation:isolate;fill:url(#linear-gradient-10)" />
  <g
     id="gs-head">
    <path
       class="cls-18"
       d="m 875.47,261.94695 c -17.55,3.17 -35.38,4.83 -53.21,5.15 -16.64,0.32 -33.12,-0.37 -48.7,-6.91 -12.26,-5.18 -22.87,-10.49 -32.95,-19.2 -1.51,-1.32 -2.7,-5.41 -0.34,-8.26 2.29,-2.77 7.67,-1.68 9.39,-0.43 17.37,12.37 42.57,21.72 67.86,21 13.68,-0.38 26.95,-1.15 40.54,-2.79 6.79,-0.84 17.07,-1.59 23.9,-2.19 3.52,-0.32 13.21,-0.04 14.72,-3.92 0.46,-1.13 0.32,-2.38 0.18,-3.59 -6.21,-54.37 -15,-115.54 -74.06,-137.2 -44.07,-16.18 -110.22,-41.39 -138.14,-51.82 -6.48,-2.49 -13.42,2.78 -12.89,9.74 1.41,18.21 4.36,44.3 6.21,68.12 6.82,76.5 -35.85,171.41 31.79,181.68 7.17,0.17 14.3,0.92 21.46,1.25 13.83,0.73 27.71,0.37 41.49,-1.07 22.74,-2.39 45.3,-7.79 66.33,-16.82 14.69,-6.23 29.02,-14.22 41.1,-24.74 13.74,-11.96 9.98,-10.65 -4.67,-7.99 z"
       id="path66"
       style="isolation:isolate" />
    <path
       class="cls-10"
       d="m 875.47,261.94695 c -17.55,3.17 -35.38,4.83 -53.21,5.15 -16.64,0.32 -33.12,-0.37 -48.7,-6.91 -12.26,-5.18 -22.87,-10.49 -32.95,-19.2 -1.51,-1.32 -2.7,-5.41 -0.34,-8.26 2.29,-2.77 7.67,-1.68 9.39,-0.43 17.37,12.37 42.57,21.72 67.86,21 13.68,-0.38 26.95,-1.15 40.54,-2.79 6.79,-0.84 17.07,-1.59 23.9,-2.19 3.52,-0.32 13.21,-0.04 14.72,-3.92 0.46,-1.13 0.32,-2.38 0.18,-3.59 -6.21,-54.37 -15,-115.54 -74.06,-137.2 -44.07,-16.18 -110.22,-41.39 -138.14,-51.82 -6.48,-2.49 -13.42,2.78 -12.89,9.74 1.41,18.21 4.36,44.3 6.21,68.12 6.82,76.5 -35.85,171.41 31.79,181.68 7.17,0.17 14.3,0.92 21.46,1.25 13.83,0.73 27.71,0.37 41.49,-1.07 22.74,-2.39 45.3,-7.79 66.33,-16.82 14.69,-6.23 29.02,-14.22 41.1,-24.74 13.74,-11.96 9.98,-10.65 -4.67,-7.99 z"
       id="path67"
       style="isolation:isolate;fill:url(#linear-gradient-5)" />
    <path
       class="cls-1"
       d="m 894.97,225.17695 c -6.45,-50 -18.72,-101.98 -72.18,-121.58 -44.07,-16.18 -110.22,-41.39 -138.14,-51.82 -6.48,-2.49 -13.42,2.78 -12.89,9.74 0.73,9.42 1.87,20.96 3.06,33.19 26.64,4.54 112.6,3.27 162.57,31.39 35.56,20.01 37,62.21 57.58,99.07 0,0 0,0.01 0,0.02 z"
       id="path68"
       style="isolation:isolate;fill:url(#radialGradient79)" />
    <path
       class="cls-15"
       d="m 864.94,159.37695 c 11.59,36.43 -19.18,72.36 -56.96,66.51 -19.23,-2.97 -35.38,-16.8 -41.28,-35.34 -11.56,-36.4 19.2,-72.32 56.96,-66.5 19.22,2.96 35.38,16.78 41.28,35.32"
       id="path69"
       style="isolation:isolate;fill:url(#radial-gradient-3)" />
    <g
       id="gl-eyelids">
      <path
         class="cls-18"
         d="m 811.21,167.89695 c -5.51,4.3 -13.28,4.9 -19.39,1.5 -10.01,-5.59 -11.94,-18.73 -4.85,-26.96 6.28,-7.59 17.53,-8.46 24.9,-1.94 8.26,7.06 8.35,20.35 -0.65,27.4"
         id="path70"
         style="isolation:isolate" />
      <circle
         class="cls-16"
         cx="804.96997"
         cy="146.06697"
         r="7.7800002"
         id="circle70"
         style="isolation:isolate;fill:url(#linear-gradient-6)" />
    </g>
    <path
       class="cls-11"
       d="m 773.1,232.86695 c -35.84,-18.8 -34.07,2.63 -34.07,2.63 0,0 0.02,0 0.02,0 0.16,-0.97 0.52,-1.93 1.22,-2.79 2.29,-2.77 7.67,-1.68 9.39,-0.43 17.37,12.37 42.57,21.72 67.86,21 13.68,-0.38 26.95,-1.15 40.54,-2.79 6.79,-0.84 17.07,-1.59 23.9,-2.19 3.52,-0.32 13.21,-0.04 14.72,-3.92 0.46,-1.13 0.32,-2.38 0.18,-3.59 -0.14,-1.23 -0.28,-2.46 -0.43,-3.69 -19.2,2.81 -91.2,12.62 -123.33,-4.23 z"
       id="path71"
       style="isolation:isolate;fill:url(#linear-gradient-7)" />
    <path
       class="cls-4"
       d="m 875.47,261.94695 c -17.55,3.17 -35.38,4.83 -53.21,5.15 -16.64,0.32 -33.12,-0.37 -48.7,-6.91 -12.26,-5.18 -22.87,-10.49 -32.95,-19.2 -1.06,-0.92 -1.93,-3.2 -1.57,-5.47 v 0 c 0,0 -6.35,14.87 26.53,33.09 26.29,14.57 88.95,6.42 113.02,2.56 0.5,-0.42 1.06,-0.79 1.56,-1.22 13.74,-11.96 9.98,-10.65 -4.67,-7.99 z"
       id="path72"
       style="isolation:isolate;fill:url(#radial-gradient-4)" />
    <path
       id="gs-eyelids"
       style="fill:#30ba78;fill-opacity:0.064982;stroke:#30ba78;stroke-width:43.78;stroke-linejoin:round"
       d="m 697.14102,211.92159 221.67796,27.93072 M 726.55222,111.01576 948.23019,138.94648"
       clip-path="url(#clipPath81)" />
  </g>
</svg>
