<?xml version="1.0" encoding="UTF-8" standalone="no"?>
<svg
   viewBox="0 0 520.51 341.62"
   version="1.1"
   id="svg105"
   xmlns:xlink="http://www.w3.org/1999/xlink"
   xmlns="http://www.w3.org/2000/svg"
   xmlns:svg="http://www.w3.org/2000/svg">
  <defs
     id="defs71">
    <linearGradient
       id="linearGradient116">
      <stop
         style="stop-color:#08201c;stop-opacity:0.60402685;"
         offset="0"
         id="stop116" />
      <stop
         style="stop-color:#091b17;stop-opacity:0;"
         offset="1"
         id="stop117" />
    </linearGradient>
    <linearGradient
       id="linearGradient108">
      <stop
         style="stop-color:#32b678;stop-opacity:1;"
         offset="0"
         id="stop108" />
      <stop
         style="stop-color:#008657;stop-opacity:1"
         offset="1"
         id="stop109" />
    </linearGradient>
    <style
       id="style1">
      .cls-1 {
        fill: url(#radial-gradient-2);
      }

      .cls-1, .cls-2, .cls-3, .cls-4 {
        opacity: .3;
      }

      .cls-2 {
        fill: url(#radial-gradient-5);
      }

      .cls-3 {
        fill: url(#radial-gradient-6);
      }

      .cls-4 {
        fill: url(#radial-gradient-4);
      }

      .cls-5 {
        fill: url(#radial-gradient);
        opacity: .4;
      }

      .cls-5, .cls-6, .cls-7, .cls-8, .cls-9, .cls-10 {
        mix-blend-mode: multiply;
      }

      .cls-11 {
        fill: url(#radial-gradient-3);
      }

      .cls-12 {
        fill: url(#linear-gradient-5);
      }

      .cls-13 {
        fill: url(#linear-gradient-9);
      }

      .cls-14 {
        fill: url(#linear-gradient-4);
      }

      .cls-15 {
        fill: url(#linear-gradient-3);
      }

      .cls-16 {
        fill: url(#linear-gradient-2);
      }

      .cls-6 {
        fill: url(#linear-gradient-6);
      }

      .cls-7 {
        fill: url(#linear-gradient-7);
      }

      .cls-8 {
        fill: url(#linear-gradient-8);
      }

      .cls-17 {
        fill: url(#linear-gradient);
      }

      .cls-18 {
        fill: #32b678;
      }

      .cls-19 {
        isolation: isolate;
      }

      .cls-9 {
        fill: url(#linear-gradient-10);
      }

      .cls-20 {
        fill: #1b6936;
      }

      .cls-21 {
        fill: url(#linear-gradient-11);
      }

      .cls-22 {
        fill: url(#linear-gradient-12);
      }

      .cls-23 {
        fill: url(#linear-gradient-13);
      }

      .cls-24 {
        fill: url(#linear-gradient-14);
      }

      .cls-25 {
        fill: url(#linear-gradient-15);
      }

      .cls-26 {
        fill: url(#linear-gradient-16);
      }

      .cls-27 {
        fill: none;
        stroke: #32b678;
        stroke-miterlimit: 10;
        stroke-width: 4.14px;
      }
    </style>
    <linearGradient
       id="linear-gradient-4"
       x1="306.29"
       y1="261.57"
       x2="306.29"
       y2="162.6"
       gradientUnits="userSpaceOnUse">
      <stop
         offset="0"
         stop-color="#1b6936"
         stop-opacity="0"
         id="stop22" />
      <stop
         offset=".28"
         stop-color="#1b6936"
         stop-opacity=".09"
         id="stop23" />
      <stop
         offset=".76"
         stop-color="#1b6936"
         stop-opacity=".35"
         id="stop24" />
      <stop
         offset="1"
         stop-color="#1b6936"
         stop-opacity=".5"
         id="stop25" />
    </linearGradient>
    <linearGradient
       id="linear-gradient-7"
       x1="268.39"
       y1="124.6"
       x2="315.77"
       y2="97.24"
       gradientUnits="userSpaceOnUse"
       gradientTransform="translate(0,33)">
      <stop
         offset="0"
         stop-color="#1b6936"
         stop-opacity="0"
         id="stop33" />
      <stop
         offset=".2"
         stop-color="#1b6936"
         stop-opacity=".11"
         id="stop34" />
      <stop
         offset=".69"
         stop-color="#1b6936"
         stop-opacity=".32"
         id="stop35" />
      <stop
         offset="1"
         stop-color="#1b6936"
         stop-opacity=".4"
         id="stop36" />
    </linearGradient>
    <radialGradient
       id="radial-gradient-2"
       cx="199"
       cy="-1887.07"
       fx="199"
       fy="-1887.07"
       r="69.07"
       gradientTransform="translate(1104.64 1761.98) rotate(-30.43)"
       gradientUnits="userSpaceOnUse">
      <stop
         offset="0"
         stop-color="#a6d7ba"
         id="stop42" />
      <stop
         offset="1"
         stop-color="#fff"
         stop-opacity="0"
         id="stop43" />
    </radialGradient>
    <radialGradient
       id="radial-gradient-3"
       cx="219.65"
       cy="-1860.27"
       fx="219.65"
       fy="-1883.94"
       r="35.58"
       gradientTransform="rotate(-30.43,3852.2173,-1133.2839)"
       gradientUnits="userSpaceOnUse">
      <stop
         offset="0"
         stop-color="#fff"
         id="stop44" />
      <stop
         offset=".56"
         stop-color="#fdfdfd"
         id="stop45" />
      <stop
         offset=".76"
         stop-color="#f6f6f6"
         id="stop46" />
      <stop
         offset=".87"
         stop-color="#efeeee"
         id="stop47" />
    </radialGradient>
    <linearGradient
       id="linear-gradient-9"
       x1="-1917.03"
       y1="-1260.12"
       x2="-1917.03"
       y2="-1250.59"
       gradientTransform="rotate(149.57,-968.99426,-288.83456)"
       gradientUnits="userSpaceOnUse">
      <stop
         offset="0"
         stop-color="#fff"
         stop-opacity="0"
         id="stop48" />
      <stop
         offset=".07"
         stop-color="#fff"
         stop-opacity=".1"
         id="stop49" />
      <stop
         offset=".27"
         stop-color="#fff"
         stop-opacity=".37"
         id="stop50" />
      <stop
         offset=".46"
         stop-color="#fff"
         stop-opacity=".59"
         id="stop51" />
      <stop
         offset=".63"
         stop-color="#fff"
         stop-opacity=".77"
         id="stop52" />
      <stop
         offset=".78"
         stop-color="#fff"
         stop-opacity=".9"
         id="stop53" />
      <stop
         offset=".91"
         stop-color="#fff"
         stop-opacity=".97"
         id="stop54" />
      <stop
         offset="1"
         stop-color="#fff"
         id="stop55" />
    </linearGradient>
    <linearGradient
       id="linear-gradient-10"
       x1="200.44"
       y1="-1847.87"
       x2="235.58"
       y2="-1787"
       gradientTransform="rotate(-30.43,3852.2173,-1133.2839)"
       gradientUnits="userSpaceOnUse">
      <stop
         offset="0"
         stop-color="#fff"
         stop-opacity="0"
         id="stop56" />
      <stop
         offset="1"
         stop-color="#1b6936"
         stop-opacity=".5"
         id="stop57" />
    </linearGradient>
    <radialGradient
       id="radial-gradient-4"
       cx="214.14"
       cy="-1806.16"
       fx="214.14"
       fy="-1806.16"
       r="37.95"
       xlink:href="#radial-gradient-2"
       gradientTransform="translate(0,33)" />
    <radialGradient
       id="radial-gradient-5"
       cx="210.05"
       cy="141.1"
       fx="210.05"
       fy="141.1"
       r="80.89"
       xlink:href="#radial-gradient-2"
       gradientTransform="translate(0,33)" />
    <linearGradient
       id="linear-gradient-15"
       x1="358.4"
       y1="198.07"
       x2="401.46"
       y2="198.07"
       gradientUnits="userSpaceOnUse">
      <stop
         offset="0"
         stop-color="#1b6936"
         stop-opacity=".6"
         id="stop70" />
      <stop
         offset="1"
         stop-color="#1b6936"
         stop-opacity="0"
         id="stop71" />
    </linearGradient>
    <linearGradient
       id="linear-gradient-16"
       x1="394.4"
       y1="186.78"
       x2="394.4"
       y2="157.09"
       xlink:href="#linear-gradient-15"
       gradientTransform="translate(0,33)" />
    <radialGradient
       id="radial-gradient-6"
       cx="396.13"
       cy="166.74"
       fx="396.13"
       fy="166.74"
       r="31.64"
       xlink:href="#radial-gradient-2"
       gradientTransform="translate(0,33)" />
    <linearGradient
       xlink:href="#linearGradient108"
       id="linearGradient109"
       x1="473.73785"
       y1="184.15327"
       x2="321.91187"
       y2="233.02815"
       gradientUnits="userSpaceOnUse"
       gradientTransform="translate(0,33)" />
    <linearGradient
       xlink:href="#linearGradient108"
       id="linearGradient111"
       x1="296.09"
       y1="193.5"
       x2="330.22714"
       y2="252.62726"
       gradientUnits="userSpaceOnUse"
       gradientTransform="translate(0,33)" />
    <linearGradient
       xlink:href="#linearGradient108"
       id="linearGradient113"
       x1="322.48001"
       y1="120.02525"
       x2="358.39999"
       y2="187.67"
       gradientUnits="userSpaceOnUse"
       gradientTransform="translate(0,33)" />
    <linearGradient
       xlink:href="#linear-gradient-4"
       id="linearGradient114"
       gradientUnits="userSpaceOnUse"
       x1="306.29"
       y1="261.57"
       x2="306.29"
       y2="162.6"
       gradientTransform="translate(0,33)" />
    <radialGradient
       xlink:href="#radial-gradient-2"
       id="radialGradient114"
       gradientUnits="userSpaceOnUse"
       gradientTransform="rotate(-30.43,3852.2173,-1133.2839)"
       cx="199"
       cy="-1887.07"
       fx="199"
       fy="-1887.07"
       r="69.07" />
    <clipPath
       clipPathUnits="userSpaceOnUse"
       id="clipPath115">
      <path
         d="m 377.5,22.21 c 18.21,19.08 10,50.67 -15.19,58.47 -12.82,3.98 -27.02,0.29 -36.29,-9.42 -18.19,-19.07 -9.98,-50.65 15.19,-58.47 12.81,-3.98 27.01,-0.3 36.28,9.41"
         id="path115" />
    </clipPath>
    <linearGradient
       xlink:href="#linear-gradient-15"
       id="linearGradient115"
       gradientUnits="userSpaceOnUse"
       x1="358.4"
       y1="198.07"
       x2="401.46"
       y2="198.07"
       gradientTransform="translate(0,33)" />
    <radialGradient
       xlink:href="#linearGradient116"
       id="radialGradient117"
       cx="260.255"
       cy="237.5"
       fx="260.255"
       fy="237.5"
       r="260.255"
       gradientTransform="matrix(0.92891587,0,0,0.13471196,18.5,257.26357)"
       gradientUnits="userSpaceOnUse" />
  </defs>
  <rect
     style="fill:url(#radialGradient117);stroke:none;stroke-width:14.38;stroke-linejoin:round;stroke-dasharray:none;stroke-opacity:1"
     id="rect116"
     width="520.51001"
     height="75.484688"
     x="0"
     y="251.5153" />
  <g
     id="gp-tail">
    <path
       class="cls-18"
       d="m 439.05,216.57 c -2.02,-19.46 -18.13,-36.38 -37.41,-39.02 -11.71,-1.88 -24.6,1.28 -33.15,9.74 -13.18,12.29 -15.37,35.89 -1.41,48.4 7.23,6.43 18.89,7.83 27.03,2.39 9.63,-6.48 10.19,-20.44 -0.39,-26.37 -5.52,-3.03 -10.44,4.59 -5.35,8.35 2.31,1.59 3.18,3.44 2.05,5.88 -2.79,5.29 -11.15,4.06 -14.58,0.22 -6.8,-7.46 -4.37,-21.09 3.36,-27.19 5.31,-4.54 12.63,-5.52 19.3,-4.02 10.24,2.24 18.36,10.87 19.75,21.13 2.29,14.63 -6.34,29.16 -19.44,34.75 l -0.27,0.1 c -31.95,12.1 -75.47841,-6.44532 -82.34,-10.76 -10.12829,-6.36883 -13.46438,-9.14387 -20.11,-13.67 l 20.11,52.73 c 0,0 47.24,3.74 75.48,-1.19 0.56,-0.02 1.13,-0.07 1.7,-0.18 28.76,-4.68 49.68,-32.39 45.68,-61.28 z"
       id="path72"
       style="isolation:isolate;fill:url(#linearGradient109);fill-opacity:1" />
    <path
       class="cls-25"
       d="m 367.08,235.69 c 7.23,6.43 18.89,7.83 27.03,2.39 4.53,-3.05 7.05,-7.75 7.35,-12.5 -0.17,0.36 -1.75,3.65 -3.44,5.96 -1.79,2.45 -25.34,19.55 -39.62,-10.87 v 0.02 c 1.3,5.66 4.13,10.92 8.68,14.99 z"
       id="path102"
       style="isolation:isolate;fill:url(#linearGradient115)" />
    <path
       class="cls-26"
       d="m 386.51,190.43 c -16.38,2.23 -16.9,23.6 -14.07,29.35 -2.2,-10.77 3.1,-17.93 6.75,-20.81 5.31,-4.54 12.63,-5.52 19.3,-4.02 9.3,2.03 16.83,9.34 19.18,18.34 -0.03,-0.27 -0.06,-0.52 -0.1,-0.81 -2.26,-15.25 -14.68,-24.28 -31.06,-22.05 z"
       id="path103"
       style="isolation:isolate;fill:url(#linear-gradient-16)" />
    <path
       class="cls-3"
       d="m 401.64,177.55 c -11.71,-1.88 -24.6,1.28 -33.15,9.74 -9.33,8.7 -13.14,23.06 -9.63,35.15 0.02,-0.16 3.81,-34.32 26.53,-37.95 22.76,-3.64 39.88,8.5 49.3,17.39 -6.41,-12.72 -18.86,-22.38 -33.04,-24.33 z"
       id="path104"
       style="isolation:isolate;fill:url(#radial-gradient-6)" />
  </g>
  <path
     class="cls-18"
     d="m 315.28,246.9 c -0.11,-2.42 0.09,-4.92 0.52,-7.43 -5.05,-2.53 -9.49,-5.6 -13.04,-8.79 -4.89,-4.39 -26.52,-23.78 -46.27,-31.74 -0.19,0.17 -0.38,0.35 -0.58,0.53 -0.61,-0.64 -1.23,-1.26 -1.88,-1.86 -29.73,-14.23 -54.67,-3.45 -61.53,-0.3 -6.86,3.14 -57.19,44.81 -19.88,79.43 15.62,5.8 105.96,2.13 112.03,2.35 14.67,0.53 29.34,0.76 43.45,-0.33 -8.56,-8.26 -12.31,-20.26 -12.83,-31.85 z"
     id="path74"
     style="isolation:isolate;fill:#025937" />
  <path
     class="cls-18"
     d="m 281.09,242.11 c 4.15,1.22 -2.44,20.22 0,28.6 16.16,0.93 19.28,14.2 19.28,14.2 -32.34,0.73 -48.04,0 -48.04,0 v -35.34 c 0,0 4.7,-14.53 28.76,-7.46 z"
     id="path77"
     style="isolation:isolate;fill:#009762;fill-opacity:1" />
  <path
     class="cls-18"
     d="m 303.57,277.37 c 0,0 -22.01,12.68 -13.56,15.67 8.45,2.99 14.26,0 14.26,0 0,0 13.91,-1.76 23.59,-1.41 0,0 0,1.94 2.82,1.94 2.82,0 19.54,0.7 19.37,-2.11 -0.18,-2.82 -6.69,-8.63 -14.26,-17.08 -7.57,-8.45 -30.28,-54.37 -30.02,-63.63 0.26,-9.26 -15.76,-19.6 -27.55,-13.11 -11.8,6.49 -21.3,26.45 -11.8,35.4 9.5,8.95 33.63,27.26 37.15,44.34 z"
     id="path80"
     style="isolation:isolate" />
  <path
     class="cls-27"
     d="m 329.48,283.15 c -1.95,2.53 -1.62,8.48 -1.62,8.48"
     id="path81"
     style="isolation:isolate" />
  <path
     class="cls-14"
     d="m 303.57,277.37 c 0,0 -22.01,12.68 -13.56,15.67 8.45,2.99 9.85,0.81 14.26,0 4.41,-0.81 13.91,-1.76 23.59,-1.41 0,0 0,1.94 2.82,1.94 2.82,0 19.54,0.7 19.37,-2.11 -0.18,-2.82 -6.69,-8.63 -14.26,-17.08 -7.57,-8.45 -30.28,-54.37 -30.02,-63.63 0.26,-9.26 -15.76,-19.6 -27.55,-13.11 -11.8,6.49 -21.3,26.45 -11.8,35.4 9.5,8.95 33.63,27.26 37.15,44.34 z"
     id="path82"
     style="isolation:isolate;mix-blend-mode:multiply;fill:url(#linearGradient114)" />
  <path
     class="cls-18"
     d="m 296.58,113.96 c 0,0 -64.48,-31.67 -127.83,25.08 -63.35,56.74 -52.84,106.96 -41.11,120.17 11.73,13.21 36.05,21.82 55.58,15.35 19.53,-6.47 42.47,-15.17 51.61,-17.26 9.14,-2.09 48.06,-6.31 61.26,-30.8 13.2,-24.48 50.56,-88.77 0.5,-112.54 z"
     id="path84"
     style="isolation:isolate;fill:url(#linearGradient111);fill-opacity:1" />
  <path
     class="cls-7"
     d="m 296.58,113.96 c 0,0 -19.88,-9.76 -48.41,-8.73 v 0 c 0,0 17.38,38.4 23.71,56.04 6.32,17.64 18.49,31.4 34.42,35.43 1.51,0.38 3.07,0.49 4.67,0.36 12.65,-28.97 21.14,-66.24 -14.38,-83.1 z"
     id="path86"
     style="isolation:isolate;fill:url(#linear-gradient-7)" />
  <path
     class="cls-18"
     d="m 179.09,242.16 c 5.31,22.05 18.14,42.5 19.33,46.04 0.84,2.52 1.92,5.83 4.4,7.16 0.14,0.07 2.31,2.36 6.74,3.14 4.43,0.78 35.75,0.68 35.75,0.68 -0.05,-1.31 0.02,-1.74 -0.18,-2.29 5.21,-0.07 13.85,-0.4 13.53,-1.8 -1.95,-8.65 -19,-16.51 -19,-16.51 0,0 -14.26,-7.16 -17.28,-15.32 -0.57,-1.53 -0.81,-3.8 -0.75,-6.22 0,0 0,0 0,0 0,0 0,-0.02 0,-0.02 0.04,-1.71 0.22,-3.48 0.54,-5.16 0.24,-4.18 1.28,-4.74 0.59,-15.65 -0.8,-12.52 41.65,-18.18 20.61,-40.33 -19.4,-19.4 -35.06,-9.35 -41.04,-3.9 -5.98,5.45 -28.54,28.11 -23.23,50.16 z"
     id="path94"
     style="isolation:isolate" />
  <path
     class="cls-18"
     d="m 119.85,275.85 c 0,0 6.75,-69.87 29.87,-70.39 23.12,-0.52 12.47,30.65 11.43,43.12 -1.04,12.47 -4.08,20.56 1.24,21.81 5.32,1.25 13.75,7.23 13.82,14.41 -1.88,1.43 -15.84,0 -15.84,0 0,0 2.34,1.97 2.08,4.04 -0.26,2.08 -28.83,1.56 -37.92,0 -9.09,-1.56 -4.68,-12.99 -4.68,-12.99 z"
     id="path96"
     style="isolation:isolate" />
  <path
     class="cls-2"
     d="m 252.33,131.9 c 21.79,-1.56 39.2,-9.69 49,-15.4 -1.49,-0.89 -3.07,-1.74 -4.75,-2.54 0,0 -64.48,-31.67 -127.83,25.08 -47.67,42.7 -53.52,81.7 -48.49,104.02 20.6,-89.99 97.84,-108.71 132.08,-111.16 z"
     id="path99"
     style="isolation:isolate;fill:url(#radial-gradient-5)" />
  <path
     id="path101"
     d="m 160.36,284.79 c 0,0 -7.17,-6.16 -10.87,-8.04 0,0 13.15,-0.74 21.33,8.67 0,0 -7.18,-0.17 -10.46,-0.63 z m 84.77,12.11 c 0,0 -4.75,-6.51 -9.75,-8.46 0,0 12.65,0.24 19.38,7.98 0,0 -6.13,0.51 -9.63,0.48 z m 82.73,-5.27 c 0,0 -0.33,-5.94 1.62,-8.48 0,0 -21.03,3.5 -25.21,9.88 0,0 14.64,-1.94 23.59,-1.41 z M 281.09,270.7 c -4.95,-0.72 -11.03,-0.29 -18.43,2.19 0,0 4.15,-11.08 18.14,-3.49 l 0.3,1.31 z"
     style="fill:#008657" />
  <g
     id="gp-head">
    <path
       class="cls-18"
       d="m 415.06,115.62 c -9.92,7.28 -20.48,13.7 -31.43,19.29 -10.22,5.23 -20.65,9.79 -32.28,10.45 -9.17,0.5 -17.36,0.41 -26.24,-1.94 -1.33,-0.36 -3.31,-2.53 -2.71,-5.02 0.58,-2.41 4.24,-3.36 5.69,-3.11 14.51,2.42 32.97,0.59 48.43,-7.51 8.37,-4.37 16.36,-8.87 24.29,-14 3.95,-2.58 10.1,-6.15 14.16,-8.59 2.09,-1.26 8.18,-4.03 7.94,-6.89 -0.06,-0.84 -0.52,-1.57 -0.98,-2.28 -20.32,-31.81 -44.28,-67.09 -87.45,-62.64 -32.22,3.31 -80.87,7.68 -101.33,9.67 -4.77,0.42 -7.48,5.78 -5.04,9.94 6.38,10.87 16.11,26.15 24.46,40.36 27.37,45.37 29.64,117.13 74.69,103.03 4.5,-2.06 9.14,-3.76 13.69,-5.72 8.8,-3.73 17.29,-8.16 25.4,-13.22 13.37,-8.36 25.73,-18.53 36.04,-30.5 7.22,-8.31 13.69,-17.6 18,-27.77 4.9,-11.57 2.97,-9.62 -5.32,-3.54 z"
       id="path87"
       style="isolation:isolate;fill:url(#linearGradient113);fill-opacity:1" />
    <path
       class="cls-1"
       d="M 416.02,86.92 C 396.89,57.87 373.56,29.36 334.48,33.38 c -32.22,3.31 -80.87,7.68 -101.33,9.67 -4.77,0.42 -7.48,5.78 -5.04,9.94 3.3,5.62 7.5,12.43 11.94,19.65 27.53,-13.69 73.74,-29.82 111.34,-28.42 29.64,1.1 39.28,25.06 64.64,42.69 0,0 0,0 0.01,0 z"
       id="path89"
       style="isolation:isolate;fill:url(#radialGradient114)" />
    <path
       class="cls-11"
       d="m 377.5,55.21 c 18.21,19.08 10,50.67 -15.19,58.47 -12.82,3.98 -27.02,0.29 -36.29,-9.42 -18.19,-19.07 -9.98,-50.65 15.19,-58.47 12.81,-3.98 27.01,-0.3 36.28,9.41"
       id="path90"
       style="isolation:isolate;fill:url(#radial-gradient-3);stroke:#32b678;stroke-opacity:1" />
    <g
       id="gp-pupil">
      <path
         class="cls-18"
         d="m 349.18,73.7 c -1.87,3.84 -5.98,6.26 -10.26,6.03 -7,-0.39 -11.59,-7.09 -9.9,-13.52 1.41,-5.86 7.37,-9.36 13.17,-7.75 6.44,1.67 10.05,8.95 7,15.24"
         id="path91"
         style="isolation:isolate" />
      <circle
         class="cls-13"
         cx="337.98132"
         cy="64.289597"
         r="4.7600002"
         id="circle91"
         style="isolation:isolate;fill:url(#linear-gradient-9)" />
    </g>
    <path
       class="cls-9"
       d="m 342.79,128.57 c -27.91,-0.81 -20.33,11.94 -20.33,11.94 0,0 0.01,0 0.01,0 -0.2,-0.65 -0.27,-1.36 -0.09,-2.1 0.58,-2.41 4.24,-3.36 5.69,-3.11 14.51,2.42 32.97,0.59 48.43,-7.51 8.37,-4.37 16.36,-8.87 24.29,-14 3.95,-2.58 10.1,-6.15 14.16,-8.59 2.09,-1.26 8.18,-4.03 7.94,-6.89 -0.06,-0.84 -0.52,-1.57 -0.98,-2.28 -0.46,-0.72 -0.92,-1.44 -1.38,-2.16 -11.06,7.55 -52.73,35.42 -77.75,34.69 z"
       id="path92"
       style="isolation:isolate;fill:url(#linear-gradient-10)" />
    <path
       class="cls-4"
       d="m 415.06,115.62 c -9.92,7.28 -20.48,13.7 -31.43,19.29 -10.22,5.23 -20.65,9.79 -32.28,10.45 -9.17,0.5 -17.36,0.41 -26.24,-1.94 -0.93,-0.25 -2.17,-1.4 -2.63,-2.92 v 0 c 0,0 0.56,11.14 26.46,12.49 20.71,1.08 57.1,-22.94 70.85,-32.61 0.18,-0.42 0.42,-0.81 0.6,-1.23 4.9,-11.57 2.97,-9.62 -5.32,-3.54 z"
       id="path93"
       style="isolation:isolate;fill:url(#radial-gradient-4)" />
    <path
       id="gp-eyelids"
       style="isolation:isolate;fill:none;fill-opacity:1;stroke:#30ba78;stroke-width:14.38;stroke-linejoin:round;stroke-dasharray:none"
       d="M 312.42572,104.36697 426.62346,58.758585 M 282.11113,33.594194 396.30887,-12.014193"
       clip-path="url(#clipPath115)"
       transform="translate(0,33)" />
  </g>
</svg>
